<?xml version="1.0" encoding="UTF-8"?>
<svg version="1.1" xmlns="http://www.w3.org/2000/svg" width="173" height="174">
<path d="M0 0 C3.57874329 2.87855438 5.81776859 5.98010003 8 10 C9.1446875 8.7934375 9.1446875 8.7934375 10.3125 7.5625 C13.98038735 4.06521206 16.85578875 3.62897735 21.875 3.73046875 C25.56166149 4.19807839 28.25066491 5.50819756 31 8 C34.20199201 12.43933996 35.55209931 16.4790069 35 22 C35.969375 21.46375 36.93875 20.9275 37.9375 20.375 C41.86947148 18.71943306 44.76645015 18.88991303 48.84765625 19.9921875 C53.16494463 22.01371273 55.90484224 25.80968448 58 30 C58.37781955 37.80827068 58.37781955 37.80827068 56 42 C56.66386719 42.09796875 57.32773438 42.1959375 58.01171875 42.296875 C67.31918948 43.87303063 67.31918948 43.87303063 71 48 C73.62688831 52.55327307 74.47750227 55.97848706 73.5859375 61.0703125 C72.64239108 64.17772538 71.01831715 66.49239384 69 69 C68.01 69.495 68.01 69.495 67 70 C67.53109375 70.20753906 68.0621875 70.41507812 68.609375 70.62890625 C73.22262938 72.64089128 76.16687459 74.46472013 78.375 79.078125 C79.71927746 83.2117782 79.79648929 86.86609019 78.26953125 90.95703125 C76.23241883 94.90653493 74.06054684 97.23001805 70 99 C69.01 99 68.02 99 67 99 C67 99.66 67 100.32 67 101 C67.99 101.33 68.98 101.66 70 102 C72.79174001 105.63470046 74.3900961 109.52363922 74 114.125 C73.02327658 119.09652219 70.6961878 122.6336265 66.75 125.8125 C63.12294303 127.37872915 59.93342562 127.66665885 56 128 C56.33 128.495 56.66 128.99 57 129.5 C58.67026697 133.67566742 58.82020327 137.76550027 57.27734375 141.96875 C55.20295485 145.93276442 53.11114015 148.27905761 49 150 C43.57574512 151.30583914 40.12954292 150.77963734 35 149 C34.9175 150.19625 34.835 151.3925 34.75 152.625 C34.07346716 157.93390357 31.89150244 161.33102726 27.875 164.875 C23.53339177 166.57389018 19.5930327 166.77824457 15 166 C12.06940245 164.64088229 9.54089277 162.98729043 7 161 C6.505 162.0725 6.01 163.145 5.5 164.25 C2.97614102 168.62231908 -0.16100863 170.66267875 -5 172 C-10.60624738 172.41994362 -14.73467465 170.67016367 -19 167 C-20.875 163.75 -20.875 163.75 -22 161 C-22.46148437 161.3609375 -22.92296875 161.721875 -23.3984375 162.09375 C-28.15960973 165.48114527 -31.80428006 166.76113202 -37.671875 166.41015625 C-41.34710456 165.76267453 -43.30299112 164.56857988 -46 162 C-48.89859496 157.66116567 -50.23785487 154.2602519 -50 149 C-50.64066406 149.17917969 -51.28132813 149.35835937 -51.94140625 149.54296875 C-56.4347435 150.64788775 -59.27856591 151.2010554 -63.8125 149.9375 C-68.15429469 147.2983699 -71.36497969 144.90506094 -73 140 C-73.371875 132.190625 -73.371875 132.190625 -71 128 C-71.99580078 127.85304687 -71.99580078 127.85304687 -73.01171875 127.703125 C-82.31918948 126.12696937 -82.31918948 126.12696937 -86 122 C-88.62556647 117.44901812 -89.47886516 114.02328139 -88.5859375 108.93359375 C-87.61405694 105.72638792 -86.13258934 103.58495677 -84 101 C-83.34 101 -82.68 101 -82 101 C-82 100.34 -82 99.68 -82 99 C-82.721875 98.938125 -83.44375 98.87625 -84.1875 98.8125 C-88.49581527 97.56787559 -90.73593254 94.74561697 -93.3125 91.1875 C-94.83894904 86.33061668 -94.71288886 81.80306778 -92.5 77.25 C-89.97850825 73.25763806 -86.28379339 71.67400664 -82 70 C-83.175625 68.9171875 -83.175625 68.9171875 -84.375 67.8125 C-88.16953725 63.74692437 -89.05226862 61.64646139 -88.875 56.0625 C-88.19869858 51.94250287 -86.75116469 49.1972995 -84 46 C-79.78100933 43.2810949 -75.96163704 42.4961637 -71 42 C-71.33 41.505 -71.66 41.01 -72 40.5 C-73.40836567 36.97908582 -73.57943256 33.70550699 -73 30 C-70.749429 25.66556695 -68.14200933 22.60079655 -64 20 C-58.2089286 18.39136905 -55.14196105 19.37655048 -50 22 C-49.96132812 21.12988281 -49.96132812 21.12988281 -49.921875 20.2421875 C-49.52665867 14.79898075 -48.7270945 11.23075592 -45 7 C-40.58945707 3.99281164 -36.25619263 3.05995016 -31 4 C-27.71530762 5.34546053 -24.64494375 6.71011251 -23 10 C-22.6596875 9.38511719 -22.319375 8.77023437 -21.96875 8.13671875 C-19.06176604 3.28916836 -16.74302054 -0.18623272 -11.1484375 -1.76171875 C-7.14499042 -2.20573743 -3.69865597 -1.56291199 0 0 Z " fill="#C0C0C0" transform="translate(94,2)"/>
</svg>
